<svg id="Слой_1" data-name="Слой 1" xmlns="http://www.w3.org/2000/svg" viewBox="0 0 1499.74 225.45"><defs><style>.cls-1{fill:#39eb56;}.cls-2{fill:#ffd503;}.cls-3{fill:#eb7659;}.cls-4{fill:#3866ff;}.cls-5{fill:#9318ff;}</style></defs><title>AppTrackerTitleColored</title><rect class="cls-1" x="186.13" width="19.8" height="198.01" rx="9.9" ry="9.9"/><rect class="cls-2" x="223.36" y="39.6" width="19.8" height="118.81" rx="9.9" ry="9.9"/><rect class="cls-3" x="260.59" y="79.21" width="19.8" height="39.6" rx="9.9" ry="9.9"/><rect class="cls-4" x="148.91" y="39.6" width="19.8" height="118.81" rx="9.9" ry="9.9"/><rect class="cls-5" x="111.68" y="79.21" width="19.8" height="39.6" rx="9.9" ry="9.9"/><rect class="cls-1" x="74.45" width="19.8" height="198.01" rx="9.9" ry="9.9"/><rect class="cls-4" x="37.23" y="39.6" width="19.8" height="118.81" rx="9.9" ry="9.9"/><rect class="cls-5" y="79.21" width="19.8" height="39.6" rx="9.9" ry="9.9"/><path class="cls-5" d="M466.22,1077.24a3.72,3.72,0,0,1-3.36-1.79,4.31,4.31,0,0,1-.45-3.81L517,920.19a9.82,9.82,0,0,1,3.47-4.59,9.22,9.22,0,0,1,5.48-1.67,9.74,9.74,0,0,1,5.59,1.67,8.4,8.4,0,0,1,3.36,4.59l54.58,151.45a4.31,4.31,0,0,1-.44,3.81,3.72,3.72,0,0,1-3.36,1.79,8.35,8.35,0,0,1-4.92-1.57,8.2,8.2,0,0,1-3.13-4l-15.44-44.29a2.61,2.61,0,0,0-2.68-1.79H491.94a2.47,2.47,0,0,0-2.46,1.79l-15.43,44.29Q472.25,1077.23,466.22,1077.24ZM525.5,924,494,1014.37a1.22,1.22,0,0,0,.22,1.23,1.36,1.36,0,0,0,1.12.56h61.07c1,0,1.42-.59,1.12-1.79L526.17,924c0-.14-.15-.22-.44-.22A.2.2,0,0,0,525.5,924Z" transform="translate(-130 -901)"/><path class="cls-5" d="M623,1124.89a5.37,5.37,0,0,1-9.17-3.81v-155a5.15,5.15,0,1,1,10.29,0v13.42c0,.15.07.23.22.23s.45-.08.45-.23q13.63-20.81,39.6-20.8,22.37,0,34.67,15.66t12.31,44.74q0,28.41-12.64,44.41t-34.34,16q-26,0-39.15-19.91a.39.39,0,0,0-.45-.44c-.15,0-.23.07-.23.22v61.74A5.22,5.22,0,0,1,623,1124.89Zm1.56-120.81v30q0,15,11.53,25.73t26.51,10.74q18.33,0,28.18-13.2t9.85-38.26q0-51.45-38-51.45-15.23,0-26.63,11T624.6,1004.08Z" transform="translate(-130 -901)"/><path class="cls-5" d="M748.77,1124.89a5.38,5.38,0,0,1-9.18-3.81v-155a5.15,5.15,0,1,1,10.29,0v13.42a.21.21,0,0,0,.23.23c.29,0,.44-.08.44-.23q13.65-20.81,39.6-20.8,22.36,0,34.68,15.66t12.3,44.74q0,28.41-12.64,44.41t-34.34,16q-25.95,0-39.15-19.91a.39.39,0,0,0-.45-.44.19.19,0,0,0-.22.22v61.74A5.22,5.22,0,0,1,748.77,1124.89Zm1.56-120.81v30q0,15,11.52,25.73t26.51,10.74q18.35,0,28.19-13.2t9.84-38.26q0-51.45-38-51.45-15.21,0-26.62,11T750.33,1004.08Z" transform="translate(-130 -901)"/><path class="cls-3" d="M866.89,923.77a5,5,0,0,1-4.93-4.92,5,5,0,0,1,4.93-4.92H970.24a4.92,4.92,0,0,1,0,9.84H926.17a1.78,1.78,0,0,0-2,2v145.86a5.24,5.24,0,0,1-1.68,4,5.67,5.67,0,0,1-7.83,0,5.24,5.24,0,0,1-1.68-4V925.78a1.78,1.78,0,0,0-2-2Z" transform="translate(-130 -901)"/><path class="cls-3" d="M1016.32,1075.67a5.59,5.59,0,0,1-9.61-4V966.27a5.33,5.33,0,0,1,5.36-5.36,5.59,5.59,0,0,1,3.92,1.56,5,5,0,0,1,1.68,3.8V990a.22.22,0,0,0,.44,0,48,48,0,0,1,20-21.14q13.53-7.73,30.76-7.94a5,5,0,0,1,4.92,4.92,4.6,4.6,0,0,1-4.7,4.7q-22.61.22-36.91,14.31T1017.89,1022v49.66A5.42,5.42,0,0,1,1016.32,1075.67Z" transform="translate(-130 -901)"/><path class="cls-3" d="M1132.43,1079.47q-15.43,0-24.61-9.28t-9.17-24.94a37,37,0,0,1,3-15.1,37.83,37.83,0,0,1,9.84-12.87q6.83-6,19.69-9.39t30.76-3.36h12.53a1.78,1.78,0,0,0,2-2V996q0-15.43-6.82-21.7t-24-6.27a109.16,109.16,0,0,0-36.24,6.27A3.57,3.57,0,0,1,1106,974a3.15,3.15,0,0,1-1.56-2.79,6.44,6.44,0,0,1,4.92-6.71,116.51,116.51,0,0,1,36.24-5.82q23,0,32.33,8.84t9.28,30.76v73.82a5.15,5.15,0,1,1-10.29,0v-17.45a.2.2,0,0,0-.22-.22c-.31,0-.45.08-.45.22a45.7,45.7,0,0,1-17.68,18.24A51.39,51.39,0,0,1,1132.43,1079.47Zm29.53-66.66q-52.57,0-52.57,31.54,0,11.87,6.82,18.79t18.23,6.94a40.73,40.73,0,0,0,29.76-12.19q12.3-12.2,12.3-31.44v-11.63a1.78,1.78,0,0,0-2-2Z" transform="translate(-130 -901)"/><path class="cls-3" d="M1266.88,1079.47q-26,0-39.82-15.21t-13.87-45.19q0-29.54,13.42-45t38-15.43a109.71,109.71,0,0,1,26.62,3.35,6.16,6.16,0,0,1,3.7,2.35,6.73,6.73,0,0,1,1.45,4.14,3.14,3.14,0,0,1-1.57,2.8,4.1,4.1,0,0,1-3.35.56,89.89,89.89,0,0,0-26.4-4q-40.72,0-40.72,51.23t43,51.23a76.07,76.07,0,0,0,25.5-4.25,3,3,0,0,1,3.13.45,3.44,3.44,0,0,1,1.57,2.91q0,4.92-4.92,6.48A91.55,91.55,0,0,1,1266.88,1079.47Z" transform="translate(-130 -901)"/><path class="cls-3" d="M1341.71,1075.67a5.53,5.53,0,0,1-3.91,1.57,5.34,5.34,0,0,1-5.37-5.37v-157a5.34,5.34,0,0,1,5.37-5.37,5.57,5.57,0,0,1,3.91,1.57,5,5,0,0,1,1.68,3.8V1013a.19.19,0,0,0,.22.22h.23L1402,965.38a19.87,19.87,0,0,1,12.75-4.47,2.26,2.26,0,0,1,2.35,1.67,2.39,2.39,0,0,1-.78,2.8l-61.52,50.34a1.62,1.62,0,0,0,0,2.46l62.64,54.36a2.57,2.57,0,0,1,.45,2.91,2.35,2.35,0,0,1-2.24,1.79,18.16,18.16,0,0,1-12.31-4.7l-59.5-52.13h-.23c-.15,0-.22.08-.22.23v51.23A5,5,0,0,1,1341.71,1075.67Z" transform="translate(-130 -901)"/><path class="cls-3" d="M1493.05,1079.47q-26.85,0-40.71-15.21t-13.87-45.19q0-32.43,14.09-46.42t36.24-14q42.73,0,45.64,50.11a11.32,11.32,0,0,1-3.47,8.84,12.32,12.32,0,0,1-9.06,3.69h-70.69c-1.2,0-1.79.67-1.79,2q1.33,47.43,44.29,47.43a84.64,84.64,0,0,0,29.53-5.37,2.93,2.93,0,0,1,3,.34,3.21,3.21,0,0,1,1.46,2.79q0,4.7-4.7,6.27A102.76,102.76,0,0,1,1493.05,1079.47Zm-4.25-112.08q-36.24,0-39.15,43c0,1.49.67,2.23,2,2.23h70.24c1.34,0,2-.74,2-2.23Q1522.36,967.39,1488.8,967.39Z" transform="translate(-130 -901)"/><path class="cls-3" d="M1572.24,1075.67a5.59,5.59,0,0,1-9.61-4V966.27a5.33,5.33,0,0,1,5.36-5.36,5.59,5.59,0,0,1,3.92,1.56,5,5,0,0,1,1.68,3.8V990a.22.22,0,0,0,.44,0,48,48,0,0,1,20-21.14q13.53-7.73,30.76-7.94a5,5,0,0,1,4.92,4.92,4.6,4.6,0,0,1-4.7,4.7q-22.61.22-36.91,14.31T1573.81,1022v49.66A5.42,5.42,0,0,1,1572.24,1075.67Z" transform="translate(-130 -901)"/></svg>