<?xml version="1.0" standalone="no"?><!DOCTYPE svg PUBLIC "-//W3C//DTD SVG 1.1//EN" "http://www.w3.org/Graphics/SVG/1.1/DTD/svg11.dtd"><svg class="icon" height="512" viewBox="0 0 1024 1024" version="1.1" xmlns="http://www.w3.org/2000/svg"><path d="M336.9984 282.7264c9.693867-8.840533 23.586133-8.874667 34.6112-2.525867 95.0272 52.872533 189.405867 106.9056 283.9552 160.631467-26.350933 26.897067-53.418667 53.1456-79.735467 80.0768l-1.194666 1.092267c-77.789867-81.1008-158.9248-159.0272-237.636267-239.274667z" fill="#0FF07E" /><path d="M326.826667 341.2992c0.1024-19.626667-2.8672-42.0864 10.171733-58.5728 78.711467 80.247467 159.8464 158.173867 237.636267 239.274667-79.6672 79.633067-159.368533 159.197867-238.830934 239.035733-7.5776-12.1856-8.738133-26.897067-9.1136-40.8576 0.238933-126.293333 0.068267-252.586667 0.136534-378.88z" fill="#10CFFF" /><path d="M655.5648 440.832c31.982933 17.7152 63.624533 36.010667 95.3344 54.203733 11.1616 6.109867 21.6064 18.158933 18.568533 31.709867-3.2768 13.653333-16.4864 20.821333-27.716266 27.204267-28.8768 15.394133-56.661333 32.768-85.435734 48.366933-26.760533-27.204267-54.545067-53.4528-80.4864-81.408 26.3168-26.9312 53.384533-53.179733 79.735467-80.0768z" fill="#FFCA0A" /><path d="M574.634667 522.001067l1.194666-1.092267c25.941333 27.9552 53.725867 54.203733 80.4864 81.408-93.252267 53.5552-186.88 106.496-280.541866 159.402667-11.9808 7.236267-28.7744 9.0112-39.970134-0.682667 79.4624-79.837867 159.163733-159.402667 238.830934-239.035733z" fill="#FA3E4D" /></svg>